Coordinates
version=1
nRows=22
nColumns=24
inDegrees=yes

Units are S.I. units (second, meters, Newtons, ...)
Angles are in degrees.

endheader
time	pelvis_tilt	pelvis_list	pelvis_rotation	pelvis_tx	pelvis_ty	pelvis_tz	hip_flexion_r	hip_adduction_r	hip_rotation_r	knee_angle_r	ankle_angle_r	subtalar_angle_r	mtp_angle_r	hip_flexion_l	hip_adduction_l	hip_rotation_l	knee_angle_l	ankle_angle_l	subtalar_angle_l	mtp_angle_l	lumbar_extension	lumbar_bending	lumbar_rotation
      0.60000000	     -0.19387485	      5.05534226	      2.13698801	     -0.70963378	      0.98666496	      0.26895060	     25.24727804	     -4.11165881	     -3.72958833	     -7.63075019	      4.42583340	     -7.27520740	     13.25868726	    -20.15573246	      7.23475386	      7.73773030	     -8.20194631	      8.87567455	    -11.66578993	      9.15439481	     -2.93692018	     -5.69914449	     -5.82627127
      0.60416667	     -0.24094199	      4.95058567	      2.15237642	     -0.70304147	      0.98637106	      0.26941285	     25.26505203	     -3.95479050	     -3.52054801	     -8.25711349	      4.06248268	     -7.50706405	     13.22503464	    -20.04466366	      7.10666588	      7.54353085	     -9.03742826	      8.67485419	    -11.46630410	      9.24991692	     -2.77128184	     -5.53955673	     -5.89061910
      0.60833333	     -0.24207731	      4.82722744	      2.18040989	     -0.69645010	      0.98618572	      0.26989718	     25.21144319	     -3.77800151	     -3.31287260	     -8.85503421	      3.70015083	     -7.87179337	     13.18836706	    -19.92584132	      6.94412630	      7.25823399	     -9.98193989	      8.53743691	    -11.08494595	      9.46552996	     -2.66922802	     -5.36003548	     -5.93482155
      0.61250000	     -0.26412502	      4.70466281	      2.18820239	     -0.68982085	      0.98599940	      0.27039671	     25.19076389	     -3.59892535	     -3.12581221	     -9.47663762	      3.30507083	     -8.14259460	     13.16650058	    -19.77225675	      6.79259066	      6.95962379	    -10.94352376	      8.29299416	    -10.78870635	      9.70955089	     -2.52781305	     -5.18226379	     -5.96690406
      0.61666667	     -0.27107550	      4.57918273	      2.18698616	     -0.68318325	      0.98587199	      0.27091757	     25.15503899	     -3.41548298	     -2.95603469	    -10.10575217	      2.91751444	     -8.39167413	     13.15236880	    -19.59800325	      6.63641694	      6.61784062	    -11.96496937	      8.01514157	    -10.45103911	     10.01754366	     -2.40626235	     -5.00023802	     -5.98464404
      0.62083333	     -0.17668047	      4.44036264	      2.16380234	     -0.67657722	      0.98590923	      0.27148175	     25.01014481	     -3.21273027	     -2.81755245	    -10.73053404	      2.49676762	     -8.59514531	     13.13320570	    -19.49515388	      6.45329343	      6.15853645	    -13.04352349	      7.73644165	     -9.94392125	     11.08746679	     -2.42688711	     -4.80462042	     -5.98117960
      0.62500000	     -0.25480985	      4.32416305	      2.14419700	     -0.66988347	      0.98576122	      0.27199359	     25.08008139	     -3.04521449	     -2.70445727	    -11.43593699	      2.18312549	     -8.72463972	     13.12859361	    -19.22249580	      6.32979327	      5.90914352	    -14.08577916	      7.23695396	     -9.90424166	     11.28264216	     -2.19824907	     -4.61520905	     -5.99353720
      0.62916667	     -0.22150554	      4.18943862	      2.12624582	     -0.66328391	      0.98579227	      0.27259800	     25.00242180	     -2.84615756	     -2.55193453	    -12.08085285	      1.84237151	     -9.05064331	     13.04784249	    -18.97206106	      6.14152363	      5.40618505	    -15.29015910	      6.78176200	     -9.53171652	     18.30158380	     -2.12857951	     -4.42972264	     -5.98870150
      0.63333333	     -0.22878358	      4.07054170	      2.09905334	     -0.65667149	      0.98579300	      0.27315184	     25.00172103	     -2.68229889	     -2.51215124	    -12.79878339	      1.60188313	     -9.03341763	     13.04484547	    -18.66074504	      5.98810777	      4.97684639	    -16.53579931	      6.30748434	     -9.23097813	     18.36012820	     -2.00309878	     -4.25537111	     -5.93903477
      0.63750000	     -0.20907897	      3.94014723	      2.06085895	     -0.65009601	      0.98586146	      0.27375161	     24.97157269	     -2.49789054	     -2.44885881	    -13.51745933	      1.35100966	     -9.15285619	     13.03320556	    -18.33871457	      5.81167218	      4.49389662	    -17.83819237	      5.82774423	     -8.84633292	     18.49459459	     -1.91949533	     -4.05952728	     -5.90067880
      0.64166667	     -0.20210834	      3.81640267	      2.01871997	     -0.64354254	      0.98596052	      0.27437389	     24.94621960	     -2.32017578	     -2.38145964	    -14.21922699	      1.14829089	     -9.22324512	     13.01548724	    -17.96455412	      5.63583768	      3.99695006	    -19.19469638	      5.25330636	     -8.50596191	     18.67691399	     -1.82168188	     -3.88486062	     -5.85288378
      0.64583333	     -0.16849680	      3.68379484	      1.96825538	     -0.63702791	      0.98611231	      0.27501146	     24.89829019	     -2.13396200	     -2.34154818	    -14.93541499	      0.98282251	     -9.28161120	     12.98675402	    -17.58467508	      5.44180613	      3.47631564	    -20.60142944	      4.65549029	     -8.14597849	     18.93039095	     -1.75955370	     -3.68679405	     -5.79448139
      0.65000000	     -0.15646839	      3.56029710	      1.91338761	     -0.63054160	      0.98629149	      0.27567874	     24.85124961	     -1.95287442	     -2.27217653	    -15.60480959	      0.87074214	     -9.28788611	     12.95965139	    -17.14675524	      5.25331687	      2.96642645	    -22.05114536	      3.94152735	     -7.88079682	     19.14375128	     -1.66732167	     -3.52241536	     -5.74075311
      0.65416667	     -0.12183539	      3.42735282	      1.85943293	     -0.62413301	      0.98649572	      0.27634445	     24.80495933	     -1.76854774	     -2.26241280	    -16.32880135	      0.77795199	     -9.33609247	     12.90742276	    -16.68518018	      5.03754435	      2.42232562	    -23.57623388	      3.28609000	     -7.50638499	     19.49961700	     -1.62600657	     -3.31915377	     -5.65691436
      0.65833333	     -0.10062850	      3.29886641	      1.79808002	     -0.61774102	      0.98674453	      0.27704755	     24.73097911	     -1.58014320	     -2.20458814	    -16.96415502	      0.74267952	     -9.31339356	     12.86072185	    -16.18767277	      4.82373496	      1.90053961	    -25.11814920	      2.49559770	     -7.27688447	     19.78400431	     -1.55327924	     -3.15559458	     -5.59224674
      0.66250000	     -0.08050056	      3.17050341	      1.73946020	     -0.61141724	      0.98701351	      0.27775621	     24.66308054	     -1.39532178	     -2.17648819	    -17.61116419	      0.73027037	     -9.31305541	     12.80238230	    -15.64918759	      4.59619762	      1.37606614	    -26.70990422	      1.72774945	     -7.00685977	     20.09668926	     -1.49515892	     -2.97176726	     -5.51163488
      0.66666667	     -0.05062916	      3.03614987	      1.68123795	     -0.60515975	      0.98731882	      0.27847496	     24.56783952	     -1.20254552	     -2.15206456	    -18.22038977	      0.75090917	     -9.30223031	     12.73869479	    -15.09480031	      4.35565580	      0.87555345	    -28.33476842	      0.91644286	     -6.81126290	     20.39417519	     -1.45608125	     -2.79463778	     -5.43294032
      0.67083333	     -0.01704094	      2.89123341	      1.62867403	     -0.59895861	      0.98766407	      0.27920804	     24.44993861	     -0.99469190	     -2.11529315	    -18.79786328	      0.80617120	     -9.34266870	     11.23620229	    -14.51610785	      4.09034615	      0.39189675	    -29.97441294	      0.01313464	     -6.72109227	     26.47684112	     -1.43526270	     -2.58731472	     -5.34279298
      0.67500000	      0.00919060	      2.76133127	      1.57601204	     -0.59281164	      0.98803944	      0.27993554	     24.32124713	     -0.80754282	     -2.10871401	    -19.33024908	      0.89257694	     -9.27872380	     11.24386014	    -13.90419369	      3.83791554	     -0.06903203	    -31.64423755	     -0.82711937	     -6.60807983	     26.46828574	     -1.40229686	     -2.42388749	     -5.28082167
      0.67916667	      0.02660991	      2.62842611	      1.52804106	     -0.58675801	      0.98840414	      0.28067207	     24.19616556	     -0.61554101	     -2.10104456	    -19.84665714	      0.98566269	     -9.27318276	     11.24227878	    -13.24936650	      3.57371218	     -0.50523702	    -33.35694269	     -1.62929741	     -6.49310283	     26.44509050	     -1.37717144	     -2.24020053	     -5.19962605
      0.68333333	      0.03631888	      2.49311499	      1.48802876	     -0.58075509	      0.98880611	      0.28140675	     24.04804221	     -0.41942408	     -2.09008955	    -20.29929956	      1.10028787	     -9.27476827	     11.23238374	    -12.56726670	      3.30119561	     -0.90886440	    -35.07295041	     -2.43901399	     -6.45284514	     26.39799369	     -1.34340612	     -2.06632500	     -5.11969863
      0.68750000	      0.03595744	      2.35898617	      1.45699839	     -0.57482067	      0.98922720	      0.28213142	     23.89003244	     -0.22602659	     -2.08641389	    -20.70827691	      1.23135663	     -9.27530752	     11.21565999	    -11.85532848	      3.02897967	     -1.26630727	    -36.79613010	     -3.20662877	     -6.47243096	     26.31829309	     -1.30488857	     -1.89542097	     -5.04482290
